<?xml version="1.0" standalone="no"?>
<!DOCTYPE svg PUBLIC "-//W3C//DTD SVG 20010904//EN"
 "http://www.w3.org/TR/2001/REC-SVG-20010904/DTD/svg10.dtd">
<svg version="1.0" xmlns="http://www.w3.org/2000/svg"
 width="612.000000pt" height="408.000000pt" viewBox="0 0 612.000000 408.000000"
 preserveAspectRatio="xMidYMid meet">

<g transform="translate(0.000000,408.000000) scale(0.100000,-0.100000)"
fill="#000000" stroke="none">
<path d="M0 4035 c0 -41 2 -45 28 -50 135 -29 404 -155 482 -227 24 -22 60
-71 60 -83 0 -12 -38 -4 -50 10 -48 57 -410 265 -489 281 l-31 7 2 -192 3
-192 45 -18 c25 -10 67 -23 93 -30 27 -6 124 -47 215 -91 151 -72 173 -80 227
-80 34 0 73 -7 89 -15 16 -9 36 -13 44 -10 22 8 83 -6 79 -19 -2 -6 -21 -16
-43 -22 -22 -7 -38 -17 -36 -24 2 -10 -10 -11 -50 -6 -89 12 -153 38 -413 170
l-250 127 -3 -542 c-2 -578 -3 -565 46 -554 15 4 22 1 22 -10 0 -11 6 -14 25
-9 20 5 28 1 42 -25 10 -17 21 -31 26 -31 4 0 7 -9 7 -19 0 -11 5 -23 10 -26
6 -4 10 8 10 28 0 43 25 69 34 35 10 -38 7 -54 -15 -79 -27 -31 -49 -84 -49
-119 0 -31 -24 -58 -35 -40 -9 14 -28 1 -21 -15 3 -8 -9 -20 -30 -30 -21 -10
-34 -23 -34 -35 0 -10 -9 -25 -20 -33 -21 -14 -21 -21 -19 -551 l2 -537 27 26
c26 25 60 34 60 15 0 -5 -4 -10 -8 -10 -5 0 -25 -15 -45 -33 l-37 -33 0 -167
0 -167 55 0 c31 0 93 -12 142 -27 74 -22 110 -27 226 -29 l138 -2 32 -49 c17
-26 46 -66 64 -87 18 -22 33 -46 33 -53 0 -29 -130 -4 -170 33 -18 17 1 19 30
4 16 -8 18 -8 14 5 -4 8 -9 15 -13 15 -4 0 -22 13 -40 29 l-33 30 -31 -37
c-17 -20 -32 -39 -34 -41 -1 -2 -15 -4 -31 -6 -16 -1 -33 -5 -39 -8 -6 -4 -37
-6 -69 -5 -82 1 -134 -16 -174 -57 -18 -19 -49 -40 -67 -46 l-33 -11 0 -134 0
-134 662 0 662 0 -27 28 c-32 33 -34 62 -7 117 28 58 41 72 85 84 62 17 98 13
135 -14 19 -14 46 -25 61 -25 14 0 31 -6 37 -12 9 -12 21 -84 24 -150 l1 -28
352 0 c308 0 354 2 366 16 30 36 85 55 279 94 30 6 65 13 77 16 13 4 43 3 67
0 34 -5 47 -12 52 -29 4 -14 2 -24 -8 -31 -14 -8 -13 -12 1 -38 15 -25 21 -28
72 -28 l56 0 7 63 c4 34 12 76 18 92 13 38 115 112 131 96 19 -19 41 -12 70
24 15 19 36 35 47 35 10 0 31 11 45 26 15 14 43 28 67 32 29 5 44 13 46 25 2
9 -24 59 -58 110 -58 87 -61 94 -56 140 7 64 1 77 -34 71 -28 -6 -46 8 -35 26
5 8 11 7 21 -1 20 -17 27 -6 19 30 -5 24 -17 35 -60 56 -85 40 -105 31 -97
-43 4 -38 6 -42 26 -36 11 3 25 10 30 15 17 16 26 10 26 -16 0 -14 -6 -25 -13
-25 -8 0 -24 -11 -37 -26 -27 -27 -64 -26 -85 3 -10 14 -19 12 -76 -15 -64
-32 -90 -33 -150 -8 -12 5 -25 -3 -45 -27 -16 -19 -44 -42 -61 -51 -18 -9 -33
-21 -33 -26 0 -6 -19 -10 -42 -10 -34 0 -56 9 -102 40 -32 22 -70 40 -85 40
-18 0 -30 8 -38 27 -15 31 -17 90 -4 95 18 6 14 34 -11 84 -29 56 -58 86 -58
63 -1 -8 -7 3 -14 24 -8 21 -26 55 -40 76 -15 21 -32 56 -38 77 -8 26 -13 33
-16 21 -2 -10 -11 -16 -20 -15 -11 2 -15 -2 -13 -12 3 -8 8 -40 11 -70 6 -50
7 -51 9 -15 l2 40 34 -40 c19 -22 42 -60 52 -84 15 -38 15 -53 4 -128 -11 -79
-10 -86 8 -117 23 -37 62 -61 84 -53 12 4 17 -7 22 -53 4 -32 4 -64 0 -69 -7
-13 1 -14 80 -15 54 -1 65 -5 103 -36 l43 -35 -5 -64 c-6 -71 -25 -100 -79
-122 -18 -7 -57 -23 -87 -37 -149 -69 -289 3 -232 118 14 28 16 40 7 44 -7 2
-65 12 -131 23 -115 17 -120 19 -161 58 l-41 40 9 50 c13 67 81 140 136 143
20 2 40 5 44 8 5 2 15 -9 24 -26 22 -43 53 -44 99 -2 42 40 58 85 50 140 -5
26 -7 55 -5 64 1 11 -3 16 -11 13 -21 -8 -38 9 -54 51 l-14 39 5 -45 6 -45
-27 29 c-25 28 -25 30 -8 37 18 7 17 8 -3 15 -38 11 -41 64 -6 121 15 26 34
59 41 73 22 43 82 121 90 116 4 -2 18 11 32 30 28 38 52 52 43 26 -3 -9 -23
-33 -45 -52 -28 -26 -36 -39 -29 -49 8 -12 12 -12 25 -2 8 7 21 9 27 5 8 -5 9
-3 4 7 -7 12 -6 12 7 1 10 -8 14 -20 11 -29 -5 -12 -3 -14 7 -8 17 10 8 -60
-15 -126 -8 -24 -15 -55 -14 -69 0 -24 1 -24 12 -5 7 10 30 37 52 59 22 22 32
37 23 33 -30 -11 -20 8 28 59 46 49 86 116 97 165 4 14 35 52 69 85 110 105
139 142 169 215 36 88 38 118 7 121 -41 2 -59 -2 -75 -18 -8 -8 -28 -18 -44
-21 -16 -3 -34 -12 -40 -19 -6 -8 -15 -14 -20 -14 -22 0 -130 -80 -213 -158
-168 -159 -188 -174 -183 -142 2 11 31 47 64 80 33 33 66 73 73 90 11 27 10
31 -19 55 -17 15 -30 29 -30 33 4 26 -3 33 -23 26 -22 -6 -22 -6 -7 12 19 22
42 85 34 93 -4 3 -10 -1 -14 -8 -11 -17 -31 39 -31 85 0 35 -18 84 -31 84 -4
0 -14 13 -22 30 -14 27 -14 30 4 35 11 4 17 10 14 15 -3 5 -12 7 -20 3 -9 -3
-15 1 -15 8 0 8 -11 27 -25 43 -14 16 -25 36 -25 45 0 9 -3 11 -9 6 -16 -16
49 -233 71 -238 23 -6 40 -51 32 -83 -3 -13 -17 -33 -30 -43 -13 -10 -24 -26
-24 -34 0 -13 -4 -13 -25 -4 -34 16 -50 86 -23 105 24 17 23 35 -1 27 -13 -4
-23 0 -29 11 -9 16 -16 17 -58 7 -28 -7 -51 -8 -54 -2 -3 4 -37 18 -75 30 -71
21 -124 46 -137 63 -3 5 -6 38 -6 73 1 52 -3 68 -21 87 -28 30 -27 37 7 30 19
-4 40 1 65 16 53 31 70 19 19 -15 -23 -15 -42 -31 -42 -36 0 -16 108 -99 193
-148 91 -52 134 -65 123 -35 -3 8 -12 43 -20 77 -17 74 -41 131 -69 172 -12
16 -22 35 -23 42 -1 8 -13 22 -26 34 -21 18 -22 20 -3 18 11 -1 23 -1 28 0 12
2 -24 51 -37 51 -7 0 -19 11 -26 25 -7 14 -20 25 -27 25 -10 0 -11 -5 -3 -19
14 -28 13 -33 -8 -27 -14 5 -22 -1 -31 -21 l-12 -27 -22 42 c-23 46 -38 55
-31 20 2 -13 -4 -6 -15 16 -10 21 -21 34 -25 28 -3 -6 -16 -8 -28 -4 -18 4
-20 2 -15 -18 l6 -22 -19 20 c-11 11 -41 25 -69 31 -37 8 -61 21 -93 53 -46
45 -40 60 14 32 47 -25 118 -24 77 1 -28 18 -29 56 -3 113 14 31 35 69 45 84
17 24 54 112 88 213 5 17 14 57 20 90 19 123 31 155 54 155 20 1 20 3 -8 25
-16 14 -34 25 -38 25 -5 0 -31 10 -58 21 -40 18 -49 26 -49 46 0 20 -4 24 -17
19 -15 -6 -15 -5 1 13 10 11 27 23 37 26 10 3 16 12 13 19 -8 21 35 66 62 66
14 0 22 4 19 10 -8 14 -42 12 -87 -4 -22 -8 -39 -9 -40 -4 -2 5 -28 -6 -57
-26 -56 -38 -81 -45 -81 -23 0 23 32 45 83 58 26 6 46 13 45 14 -2 2 -31 0
-65 -4 -56 -6 -95 1 -122 25 -2 2 7 16 19 31 l22 28 -44 3 c-49 4 -71 18 -48
32 13 8 12 10 -2 10 -10 0 -18 5 -18 10 0 6 -6 10 -12 10 -16 0 -134 113 -168
160 -14 19 -43 52 -65 73 -51 49 -200 142 -244 152 -19 4 -50 23 -69 42 -37
37 -85 57 -114 47 -13 -4 -18 0 -19 13 0 10 -3 13 -6 6 -6 -17 -23 -16 -23 1
0 10 -7 12 -22 8 -17 -4 -20 -2 -15 11 5 12 1 17 -12 17 -10 0 -21 7 -25 15
-5 13 -49 15 -311 15 l-305 0 0 -45z m338 -306 c79 -21 172 -63 172 -78 0 -5
25 -23 55 -40 64 -36 71 -48 18 -26 -50 20 -364 178 -338 170 11 -3 53 -15 93
-26z m-112 -7 c5 -5 32 -17 59 -27 50 -18 365 -171 375 -182 3 -3 -15 -3 -40
-1 -49 5 -131 43 -273 126 -48 28 -103 56 -122 62 -19 6 -37 16 -40 21 -8 11
28 12 41 1z m1041 -161 c46 -61 58 -95 17 -46 -14 17 -36 41 -48 55 -43 50
-66 84 -66 99 0 16 17 -2 97 -108z m65 -189 c67 -88 78 -119 65 -185 -8 -46
-8 -60 2 -67 14 -8 8 -69 -10 -118 -14 -37 -25 -19 -49 84 -12 54 -31 122 -41
152 -23 68 -23 68 1 75 25 7 25 33 0 75 -29 48 -10 38 32 -16z m-896 -95 c32
-13 105 -61 143 -92 237 -196 296 -300 421 -750 30 -109 67 -192 108 -243 41
-51 38 -64 -5 -22 -50 49 -89 137 -143 325 -91 316 -149 432 -290 578 -46 49
-123 114 -169 145 -46 32 -89 60 -95 64 -17 12 -1 9 30 -5z m582 -418 c19 -30
8 -34 -12 -4 -9 14 -13 25 -9 25 5 0 14 -9 21 -21z m-726 -17 c18 -10 48 -22
67 -25 24 -5 54 -27 100 -75 37 -37 79 -78 94 -91 33 -29 56 -70 60 -109 2
-15 7 -34 12 -42 6 -8 10 -18 10 -21 0 -12 40 -79 47 -79 5 0 8 8 8 19 0 27
53 13 80 -22 12 -15 26 -25 30 -22 10 6 35 -34 26 -42 -3 -3 2 -19 10 -35 11
-21 21 -29 34 -25 13 3 21 -1 25 -14 3 -10 20 -33 38 -51 18 -19 41 -45 53
-58 11 -14 37 -38 58 -54 35 -28 37 -31 30 -70 -4 -23 -8 -53 -9 -67 -1 -14
-11 -46 -23 -70 -11 -24 -24 -73 -27 -108 -3 -35 -11 -72 -18 -82 -9 -15 -7
-24 12 -50 23 -31 23 -34 12 -108 -7 -42 -13 -84 -15 -94 -1 -9 -7 -22 -13
-28 -6 -6 -9 -18 -6 -25 3 -8 1 -14 -5 -14 -5 0 -12 -10 -16 -22 -4 -18 -8
-20 -18 -10 -6 6 -23 12 -37 12 -34 1 -63 23 -55 43 6 16 -27 57 -46 57 -15 0
-12 32 5 54 21 28 19 33 -19 47 -33 12 -42 24 -55 79 -3 14 -10 24 -14 22 -5
-2 -16 7 -27 20 -17 21 -17 24 -2 39 10 9 24 14 32 12 12 -4 13 -3 1 5 -7 5
-10 15 -7 21 15 23 -18 10 -45 -19 -33 -34 -36 -47 -11 -53 15 -4 14 -6 -4
-12 -11 -3 -26 -22 -33 -42 -8 -20 -30 -54 -51 -77 -21 -23 -40 -51 -44 -63
-8 -25 -36 -39 -36 -18 0 7 4 16 8 19 4 3 7 55 6 115 -1 61 2 114 7 117 14 8
11 41 -8 82 -9 20 -15 40 -15 45 1 4 -7 27 -19 52 -11 24 -18 48 -15 53 3 6
-1 23 -9 38 -8 16 -15 39 -15 50 0 29 -25 48 -54 40 -24 -6 -24 -5 -18 60 5
62 1 77 -30 137 -5 10 -7 31 -3 45 3 17 -2 43 -15 69 -11 23 -20 47 -20 54 0
23 -33 155 -49 196 -9 24 -21 43 -28 43 -8 0 -11 20 -10 61 2 46 7 64 21 74
10 8 15 18 11 24 -10 16 11 13 47 -7z m688 -2 c6 -11 8 -20 6 -20 -3 0 -10 9
-16 20 -6 11 -8 20 -6 20 3 0 10 -9 16 -20z m141 -82 c6 -12 6 -18 -1 -18 -5
0 -10 5 -10 12 0 6 -8 21 -17 32 -17 20 -17 20 0 7 10 -8 23 -23 28 -33z m-48
2 c3 -11 3 -20 1 -20 -2 0 -8 9 -14 20 -6 11 -7 20 -2 20 6 0 12 -9 15 -20z
m-48 0 c3 -5 1 -10 -4 -10 -6 0 -11 5 -11 10 0 6 2 10 4 10 3 0 8 -4 11 -10z
m-45 -20 c0 -5 -2 -10 -4 -10 -3 0 -8 5 -11 10 -3 6 -1 10 4 10 6 0 11 -4 11
-10z m170 -70 c6 -11 7 -20 3 -20 -5 0 -14 9 -21 20 -7 11 -8 20 -2 20 5 0 14
-9 20 -20z m-46 -6 c5 -14 4 -15 -9 -4 -17 14 -19 20 -6 20 5 0 12 -7 15 -16z
m-49 -22 c-8 -8 -25 10 -19 20 4 6 9 5 15 -3 4 -7 6 -15 4 -17z m165 -73 c0
-6 -4 -7 -10 -4 -5 3 -10 11 -10 16 0 6 5 7 10 4 6 -3 10 -11 10 -16z m-36 -5
c4 -10 1 -14 -6 -12 -15 5 -23 28 -10 28 5 0 13 -7 16 -16z m-44 -15 c0 -5 -4
-9 -10 -9 -5 0 -10 7 -10 16 0 8 5 12 10 9 6 -3 10 -10 10 -16z m-50 -9 c0 -5
-4 -10 -10 -10 -5 0 -10 5 -10 10 0 6 5 10 10 10 6 0 10 -4 10 -10z m130 -100
c13 -25 13 -25 -8 -6 -12 10 -19 23 -16 28 7 11 7 11 24 -22z m-45 -1 c11 -17
-1 -21 -15 -4 -8 9 -8 15 -2 15 6 0 14 -5 17 -11z m-45 -19 c0 -5 -2 -10 -4
-10 -3 0 -8 5 -11 10 -3 6 -1 10 4 10 6 0 11 -4 11 -10z m-50 -20 c0 -5 -2
-10 -4 -10 -3 0 -8 5 -11 10 -3 6 -1 10 4 10 6 0 11 -4 11 -10z m376 -97 c-7
-7 -26 7 -26 19 0 6 6 6 15 -2 9 -7 13 -15 11 -17z m223 -7 c14 -6 27 -17 29
-24 3 -11 0 -12 -17 -3 -11 6 -33 11 -48 9 -54 -3 -98 24 -55 35 21 5 59 -2
91 -17z m-306 -10 c4 -10 22 -12 74 -9 60 5 76 2 119 -20 46 -23 51 -24 61 -9
10 15 14 14 42 -12 31 -29 43 -54 19 -39 -14 8 -38 13 -38 8 0 -1 12 -10 26
-20 19 -12 29 -14 39 -5 19 16 27 -4 14 -34 -15 -31 -20 -32 -44 -6 -31 34
-125 92 -172 106 -30 9 -58 11 -88 5 -48 -9 -85 6 -85 35 0 18 26 18 33 0z
m416 -31 c0 -5 -4 -3 -9 5 -5 8 -9 22 -9 30 0 16 17 -16 18 -35z m-204 -60
c90 -54 207 -185 166 -185 -5 0 -22 7 -37 15 -16 8 -40 15 -54 15 -39 0 -114
42 -118 65 -2 11 -21 36 -43 55 -28 25 -38 41 -33 53 10 27 56 20 119 -18z
m48 -181 c78 -33 119 -62 110 -77 -4 -7 -6 -24 -4 -39 3 -33 2 -34 -55 -7 -25
11 -75 27 -110 36 -71 18 -71 17 -44 88 12 31 25 31 103 -1z m-1417 -10 c17
-5 19 -11 15 -47 -7 -50 -30 -60 -54 -23 -13 20 -14 29 -4 50 13 28 13 28 43
20z m-36 -129 c0 -8 -4 -15 -10 -15 -5 0 -10 7 -10 15 0 8 5 15 10 15 6 0 10
-7 10 -15z m2060 -27 c0 -7 -4 -7 -13 1 -8 6 -17 8 -20 4 -4 -3 -7 1 -7 11 0
14 4 15 20 6 11 -6 20 -16 20 -22z m-170 -70 c33 -37 41 -75 13 -63 -10 4 -26
10 -35 12 -20 6 -24 38 -8 48 8 5 7 11 -1 21 -23 28 2 13 31 -18z m-132 -14
c-23 -20 -53 -44 -66 -55 -12 -10 -29 -19 -36 -19 -8 0 -18 -4 -21 -10 -3 -5
-14 -10 -23 -10 -9 0 26 29 78 65 103 71 137 86 68 29z m-1863 -43 c-11 -45
-19 -44 -28 5 -5 28 -4 31 14 27 16 -5 19 -11 14 -32z m1308 -34 c-9 -23 -17
-43 -18 -45 -1 -1 -3 22 -3 53 0 51 1 54 19 45 18 -10 18 -12 2 -53z m213 28
c3 -18 -42 -116 -76 -165 -9 -14 -36 -71 -60 -128 -30 -71 -46 -99 -52 -90 -6
9 -7 6 -4 -8 13 -43 -135 -274 -155 -242 -6 8 -9 9 -9 2 0 -7 -11 -19 -25 -28
-23 -15 -24 -15 -18 1 3 10 12 27 20 38 7 11 13 27 13 37 0 10 4 18 9 18 12 0
33 56 66 178 22 84 31 103 49 108 20 5 49 48 39 58 -3 2 -14 -5 -26 -17 l-22
-22 -3 21 c-2 11 13 65 33 118 19 54 35 107 35 117 0 23 8 24 60 3 38 -15 41
-15 72 5 38 24 50 23 54 -4z m435 -37 c-13 -4 -21 -14 -18 -21 6 -16 -98 -87
-129 -87 -23 0 -49 -19 -56 -41 -3 -9 -9 -9 -26 0 -12 7 -26 10 -31 7 -4 -3
-6 5 -4 17 4 18 12 22 44 24 30 2 52 12 82 38 46 40 137 86 151 77 5 -3 -1 -9
-13 -14z m-1841 -18 c0 -5 -8 -10 -17 -10 -15 0 -16 2 -3 10 19 12 20 12 20 0z
m1855 -39 c-24 -20 -125 -91 -125 -86 0 5 121 95 129 95 3 0 1 -4 -4 -9z
m-361 -62 c-24 -27 -30 -15 -9 18 12 17 20 23 23 15 2 -7 -4 -22 -14 -33z
m-1572 -1 c-7 -7 -12 -8 -12 -2 0 14 12 26 19 19 2 -3 -1 -11 -7 -17z m1798
-64 c0 -20 -2 -21 -25 -11 -28 13 -30 19 -14 49 11 21 12 21 25 3 8 -10 14
-29 14 -41z m-144 16 c8 0 14 -9 14 -20 0 -15 -7 -20 -24 -20 -14 0 -28 5 -31
10 -3 6 -1 10 4 10 6 0 11 10 12 23 0 12 3 16 6 10 2 -7 11 -13 19 -13z
m-1586 -20 c0 -5 -4 -10 -10 -10 -5 0 -10 5 -10 10 0 6 5 10 10 10 6 0 10 -4
10 -10z m-26 -72 c-33 -65 -77 -119 -86 -106 -15 24 -8 48 16 58 13 5 27 18
31 29 7 24 32 51 46 51 5 0 2 -15 -7 -32z m2335 -14 c6 -14 11 -30 11 -37 0
-17 -39 -49 -50 -42 -5 3 -15 -1 -21 -8 -11 -11 -17 -10 -36 9 -32 33 -30 54
6 54 17 0 33 -4 36 -10 8 -13 42 -13 50 -1 3 5 0 13 -6 17 -8 5 -9 3 -4 -6 5
-9 4 -11 -4 -6 -6 4 -9 12 -5 17 3 6 -2 19 -11 29 -16 18 -16 18 3 13 11 -2
25 -16 31 -29z m-323 -48 c-14 -37 -25 -70 -24 -74 1 -4 -16 -25 -37 -47 -33
-34 -37 -35 -20 -10 19 30 75 141 75 150 0 13 21 57 26 53 2 -3 -7 -36 -20
-72z m39 -33 c-2 -32 -153 -237 -182 -247 -10 -3 -5 5 12 20 22 19 24 23 7 14
-12 -6 -28 -20 -35 -30 -6 -11 -17 -20 -24 -20 -7 0 -13 -4 -13 -10 0 -16 -52
11 -83 43 -26 28 -31 29 -83 22 -51 -6 -56 -5 -61 15 -5 20 -11 22 -52 18 -67
-7 -118 -35 -184 -100 l-58 -57 -16 35 -17 34 44 48 c180 191 181 192 250 152
92 -52 135 -72 193 -86 34 -9 70 -23 79 -31 9 -8 21 -12 27 -8 7 4 8 0 4 -11
-5 -15 -3 -15 21 2 37 24 127 136 122 151 -3 6 2 17 9 23 8 7 12 16 9 21 -3 5
2 12 10 15 9 3 13 11 9 17 -3 5 -2 7 4 4 5 -3 9 -19 8 -34z m-1321 -4 c-3 -5
-14 -9 -25 -9 -10 0 -19 4 -19 9 0 5 11 9 25 9 13 0 22 -4 19 -9z m-826 -45
c3 -15 1 -16 -8 -7 -7 6 -20 9 -28 5 -15 -5 -15 -4 -2 11 18 20 34 17 38 -9z
m2342 11 c0 -8 -4 -15 -10 -15 -5 0 -7 7 -4 15 4 8 8 15 10 15 2 0 4 -7 4 -15z
m79 -4 c12 -8 13 -16 2 -51 -10 -34 -15 -39 -27 -29 -14 12 -20 70 -7 82 8 9
15 9 32 -2z m-2438 -58 c-4 -15 -12 -28 -19 -31 -13 -4 -6 23 11 46 14 18 16
15 8 -15z m2279 3 c0 -2 -6 -9 -14 -15 -11 -9 -16 -9 -22 0 -4 7 -3 9 4 5 6
-3 13 -2 17 4 6 10 15 14 15 6z m117 -58 c-3 -8 -6 -5 -6 6 -1 11 2 17 5 13 3
-3 4 -12 1 -19z m-797 -57 c0 -5 -7 -11 -14 -14 -10 -4 -13 -1 -9 9 6 15 23
19 23 5z m-366 -115 c-15 -30 -47 -71 -71 -91 l-43 -36 56 83 c31 45 62 96 68
113 10 27 11 28 14 7 2 -12 -9 -47 -24 -76z m795 13 c17 -17 31 -40 30 -52 l0
-22 -9 23 c-5 12 -11 22 -12 22 -2 0 -2 -23 -1 -52 2 -28 -1 -56 -5 -62 -5 -6
-16 -32 -26 -57 -15 -43 -71 -107 -88 -101 -5 1 -8 -5 -8 -14 0 -10 -6 -14
-15 -11 -8 4 -17 2 -20 -3 -9 -14 -85 -57 -115 -64 -14 -4 1 8 33 27 124 73
201 181 200 281 0 28 -3 66 -5 84 -6 40 2 40 41 1z m-39 -60 c0 -12 -5 -16
-15 -13 -8 4 -15 15 -15 25 0 12 5 16 15 13 8 -4 15 -15 15 -25z m-430 -41 c0
-6 -3 -8 -7 -5 -3 4 -12 2 -20 -4 -16 -14 -18 2 -1 19 12 12 28 7 28 -10z
m-103 -85 c-3 -10 -5 -4 -5 12 0 17 2 24 5 18 2 -7 2 -21 0 -30z m83 17 c0 -5
-4 -10 -10 -10 -5 0 -10 5 -10 10 0 6 5 10 10 10 6 0 10 -4 10 -10z m517 -12
c-3 -8 -6 -5 -6 6 -1 11 2 17 5 13 3 -3 4 -12 1 -19z m-699 -25 c3 -36 21 -92
39 -120 12 -18 12 -25 1 -45 -7 -13 -16 -26 -21 -29 -13 -10 -68 3 -74 18 -4
11 -9 9 -20 -7 -8 -11 -27 -27 -44 -35 -34 -18 -37 -44 -9 -70 24 -21 26 -41
5 -49 -9 -3 -15 -18 -15 -37 0 -17 -9 -44 -21 -60 -16 -23 -28 -29 -59 -29
-58 0 -99 55 -90 119 1 13 -1 13 -14 2 -23 -19 -21 1 6 52 18 35 22 58 21 135
-1 50 2 92 7 92 8 0 20 -73 20 -127 -1 -33 -1 -33 42 -28 54 7 58 12 62 66 3
61 11 72 48 63 28 -5 30 -4 26 14 -3 11 2 33 11 49 10 15 16 34 13 41 -2 8 8
12 30 12 29 0 34 -3 36 -27z m565 12 c-3 -9 -8 -14 -10 -11 -3 3 -2 9 2 15 9
16 15 13 8 -4z m-384 -4 c23 -15 -6 -44 -36 -36 -13 3 -23 1 -23 -5 0 -6 -4
-9 -9 -5 -11 6 27 52 44 54 6 0 16 -3 24 -8z m508 -23 c-3 -8 -6 -5 -6 6 -1
11 2 17 5 13 3 -3 4 -12 1 -19z m-16 -41 c-10 -9 -11 -8 -5 6 3 10 9 15 12 12
3 -3 0 -11 -7 -18z m1114 -148 c31 -28 34 -34 22 -48 -8 -9 -17 -39 -19 -67
-4 -45 -12 -60 -58 -113 -29 -34 -68 -71 -87 -82 -18 -11 -41 -31 -50 -43 -29
-36 -61 -39 -89 -9 -27 29 -29 41 -12 78 8 18 8 31 0 49 -9 19 -7 28 9 45 11
11 28 40 38 63 10 24 27 51 37 60 72 66 103 87 134 91 19 2 36 5 37 5 1 1 18
-12 38 -29z m-1425 -9 c-8 -5 -22 -9 -30 -9 -10 0 -8 3 5 9 27 12 43 12 25 0z
m-25 -78 c4 -9 15 -40 25 -69 l18 -51 -37 -34 c-39 -37 -86 -52 -136 -42 -37
7 -68 52 -84 123 -12 56 5 74 87 90 34 6 64 16 67 21 8 12 51 -15 60 -38z m4
-345 c21 -55 -25 -114 -56 -71 -14 19 -18 76 -6 87 16 16 54 6 62 -16z"/>
<path d="M710 1710 c0 -4 7 -11 16 -14 22 -9 26 -8 22 6 -5 13 -38 20 -38 8z"/>
<path d="M1480 1611 c0 -6 5 -13 10 -16 6 -3 10 1 10 9 0 9 -4 16 -10 16 -5 0
-10 -4 -10 -9z"/>
<path d="M1330 1245 c0 -8 5 -15 10 -15 6 0 10 7 10 15 0 8 -4 15 -10 15 -5 0
-10 -7 -10 -15z"/>
<path d="M1300 1210 c0 -5 5 -10 10 -10 6 0 10 5 10 10 0 6 -4 10 -10 10 -5 0
-10 -4 -10 -10z"/>
<path d="M1706 4064 c-9 -22 -7 -31 3 -16 6 10 14 4 30 -23 11 -20 21 -39 21
-42 0 -3 17 -33 38 -67 57 -91 146 -260 187 -356 20 -47 43 -92 51 -101 8 -8
14 -30 14 -47 0 -21 7 -35 20 -42 14 -8 20 -21 20 -45 0 -32 14 -48 22 -25 2
6 20 -4 41 -21 31 -26 45 -30 77 -27 36 3 40 1 40 -19 0 -12 -4 -24 -9 -27 -5
-3 -7 -14 -4 -25 2 -10 -3 -26 -12 -35 -14 -14 -16 -27 -11 -67 9 -70 68 -190
84 -174 3 2 0 18 -6 34 -6 17 -7 31 -3 31 5 0 12 -10 16 -22 7 -22 8 -22 15 7
6 25 8 22 9 -24 1 -40 -3 -57 -16 -66 -16 -12 -16 -15 0 -56 48 -125 74 -385
48 -474 -8 -31 -2 -83 25 -195 7 -30 12 -42 10 -26 -4 28 -2 27 44 -24 41 -46
51 -52 74 -46 16 4 26 2 26 -5 0 -15 43 -7 48 10 3 9 0 11 -8 6 -9 -6 -10 -1
-4 16 4 13 8 35 7 48 -1 18 1 20 8 10 7 -11 9 -11 9 -1 0 8 5 10 12 6 8 -5 9
-2 5 10 -4 10 -7 25 -7 33 0 11 -6 9 -20 -8 l-20 -24 9 25 c6 17 5 38 -3 61
-14 39 -8 67 18 88 9 7 16 28 16 46 0 21 6 35 16 39 23 9 25 8 22 -11 -2 -13
5 -19 22 -22 23 -3 24 -4 5 -12 -13 -5 -15 -8 -5 -8 26 -1 15 -101 -19 -179
-17 -37 -31 -62 -32 -57 -1 6 -5 -6 -9 -25 -4 -19 -11 -43 -15 -52 -5 -13 -2
-18 10 -18 9 0 30 -9 46 -21 l29 -20 9 23 c5 13 17 49 27 81 10 31 22 57 27
57 15 0 1 -65 -27 -126 -32 -68 -11 -67 23 2 20 40 25 66 26 140 1 50 7 99 13
110 9 15 10 11 6 -21 l-6 -40 16 28 c8 16 18 52 22 80 4 31 15 61 27 74 17 19
19 31 14 86 -3 34 -2 69 3 77 7 11 10 0 10 -33 0 -35 4 -47 13 -45 6 3 14 13
16 24 2 10 8 22 15 26 14 9 18 118 4 118 -6 0 -8 12 -5 28 6 28 4 30 -50 34
-16 2 -16 9 -3 43 9 24 8 26 -7 21 -15 -6 -16 -5 -1 11 10 11 17 45 20 91 3
40 8 75 11 78 2 3 17 -6 32 -20 22 -21 25 -29 16 -40 -9 -11 -9 -15 1 -19 8
-4 7 -6 -4 -6 -10 -1 -18 -6 -18 -12 0 -5 -4 -7 -10 -4 -5 3 -11 -4 -11 -17
-2 -38 -8 -80 -13 -94 -7 -17 25 -28 36 -12 4 7 5 32 2 56 -6 39 -4 42 16 42
16 0 20 4 16 15 -3 10 1 15 14 15 10 0 22 5 25 10 3 6 1 10 -4 10 -6 0 -11 5
-11 11 0 5 4 8 9 5 5 -3 14 1 21 9 10 12 10 15 0 15 -7 0 -10 7 -6 16 3 8 1
25 -6 37 -7 12 -13 30 -15 41 -2 10 -12 30 -22 45 -17 23 -17 29 -5 51 7 14
13 35 14 47 0 14 9 24 29 31 37 13 175 148 213 208 15 25 35 61 43 81 16 37
28 159 19 175 -6 9 -85 -50 -114 -83 -10 -12 -52 -25 -124 -38 -60 -11 -114
-25 -119 -30 -5 -5 4 -13 22 -19 17 -6 31 -14 31 -17 0 -8 -52 6 -67 18 -17
12 -46 -11 -39 -30 6 -14 -5 -13 -52 5 -8 3 -5 -8 7 -29 23 -40 62 -169 86
-289 9 -47 23 -92 30 -100 19 -22 27 -57 20 -81 -7 -20 -7 -19 -31 6 -13 14
-24 37 -24 51 0 13 -4 32 -9 42 -6 9 -17 70 -26 135 -20 153 -67 279 -97 261
-7 -4 -8 -3 -4 4 13 21 -44 112 -109 173 -35 34 -62 66 -59 70 3 5 -1 6 -9 3
-18 -6 -57 45 -57 74 0 12 -4 24 -10 27 -5 3 -10 19 -10 35 0 27 2 28 47 27
38 -2 49 2 57 18 6 11 22 21 36 22 14 1 44 2 68 4 28 2 42 7 42 16 0 8 5 11
10 8 6 -3 14 4 19 17 9 20 10 21 10 3 1 -10 -13 -34 -31 -52 -18 -18 -27 -33
-22 -33 22 0 56 50 80 116 36 98 36 99 -13 102 -32 2 -47 -2 -62 -17 -12 -12
-34 -21 -51 -21 -34 0 -36 3 -15 24 14 14 -34 15 -483 16 -449 0 -500 -1 -506
-16z m1087 -94 c-33 -42 -43 -49 -74 -50 l-35 0 -1 50 c-1 49 0 50 28 50 16 0
29 -5 29 -12 0 -6 11 -1 25 12 21 19 25 21 25 7 0 -9 -9 -26 -20 -37 -11 -11
-15 -20 -10 -20 19 0 60 48 61 72 l2 23 4 -23 c3 -15 -8 -38 -34 -72z m-335
-20 c0 -16 -4 -10 -13 19 -8 25 -11 49 -7 55 7 12 19 -33 20 -74z m-533 0 l7
-45 -22 22 c-19 18 -21 27 -15 59 8 45 19 32 30 -36z m745 52 c0 -12 -46 -32
-54 -25 -13 13 -5 25 14 20 11 -3 20 -1 20 4 0 5 5 9 10 9 6 0 10 -4 10 -8z
m-183 -232 c1 -11 -2 -18 -7 -15 -11 6 0 -76 12 -91 12 -16 14 -95 4 -165 -5
-44 -12 -58 -27 -62 -10 -3 -19 -14 -19 -25 0 -10 -9 -31 -20 -45 -11 -14 -20
-30 -20 -36 0 -6 -4 -11 -10 -11 -5 0 -10 12 -10 26 0 19 4 25 15 20 9 -3 19
3 25 14 6 11 8 20 5 20 -3 0 2 16 10 36 8 20 15 64 15 98 0 34 5 67 11 73 7 7
7 23 -2 54 -7 24 -12 54 -11 66 2 13 -2 32 -8 42 -5 11 -7 27 -4 36 6 14 8 14
23 1 9 -8 17 -24 18 -36z m23 -300 l-11 -25 6 25 c2 14 5 36 6 50 l2 25 4 -25
c2 -14 -1 -37 -7 -50z m77 -82 c-3 -7 -5 -2 -5 12 0 14 2 19 5 13 2 -7 2 -19
0 -25z m218 -1 c3 -12 2 -34 -4 -47 l-10 -25 -1 25 c0 14 -3 35 -6 48 -4 13
-2 22 5 22 6 0 13 -10 16 -23z m-223 -21 c7 4 8 2 4 -5 -11 -17 -26 -3 -25 22
2 22 2 22 6 -1 3 -13 9 -19 15 -16z m-63 -35 c-6 -18 -9 -51 -5 -74 5 -33 4
-38 -5 -24 -16 27 -15 82 1 111 18 34 23 27 9 -13z m36 19 c3 -5 1 -10 -4 -10
-6 0 -11 5 -11 10 0 6 2 10 4 10 3 0 8 -4 11 -10z m-142 -49 c3 8 6 9 6 3 1
-6 -6 -17 -14 -24 -13 -10 -15 -9 -15 11 0 17 3 20 9 10 7 -11 9 -11 14 0z
m218 -62 c-1 -75 -11 -74 -11 1 0 35 3 60 6 57 4 -3 6 -30 5 -58z m-24 4 c-3
-10 -5 -4 -5 12 0 17 2 24 5 18 2 -7 2 -21 0 -30z m-17 3 c0 -2 -7 -6 -15 -10
-8 -3 -15 -1 -15 4 0 6 7 10 15 10 8 0 15 -2 15 -4z m215 -101 c0 -52 -4 -66
-30 -101 -16 -23 -36 -39 -42 -37 -8 3 -13 -4 -13 -17 0 -12 -7 -28 -15 -37
-9 -8 -15 -23 -13 -32 5 -25 31 -19 38 9 4 17 8 21 14 12 4 -6 4 -17 1 -22 -7
-12 12 -33 40 -44 19 -7 19 -8 3 -20 -10 -7 -18 -26 -18 -42 -1 -39 -22 -64
-48 -59 -14 2 -23 -3 -27 -16 -4 -10 -12 -19 -20 -19 -14 0 -20 -17 -30 -93
-6 -39 -10 -45 -21 -36 -11 9 -14 7 -14 -9 0 -11 -7 -25 -15 -32 -8 -7 -15
-21 -15 -32 0 -10 -7 -21 -15 -24 -8 -4 -12 -11 -8 -18 4 -8 3 -8 -7 1 -6 6
-14 34 -16 63 -3 41 -1 51 10 47 9 -4 16 5 20 25 3 17 4 33 1 36 -3 3 -5 -3
-5 -13 0 -14 -3 -15 -15 -5 -8 7 -15 18 -15 25 0 8 -8 11 -19 8 -20 -5 -42 18
-23 25 28 9 6 102 -23 102 -8 0 -15 5 -15 10 0 6 9 10 19 10 11 0 22 4 26 9 3
5 19 12 35 16 21 5 30 13 30 26 0 11 -5 17 -10 14 -6 -4 -8 -11 -5 -16 4 -5 1
-9 -4 -9 -6 0 -11 5 -11 11 0 7 -12 10 -30 7 -16 -3 -30 -1 -30 4 0 5 -4 7 -9
3 -13 -7 -61 15 -62 29 0 6 -2 26 -5 44 -4 30 -2 32 15 22 23 -12 63 -9 74 5
4 6 11 4 17 -5 6 -9 10 -10 10 -3 0 17 42 12 58 -7 10 -13 11 -13 6 4 -6 17
-5 17 22 3 57 -28 80 -29 97 -3 9 13 13 27 10 30 -12 11 -32 79 -27 88 3 5 14
6 25 3 10 -4 19 -2 19 3 0 5 11 25 24 45 14 20 28 53 32 73 6 32 8 34 18 18 5
-11 10 -46 11 -79z m-335 45 l3 35 6 -30 c5 -27 14 -33 39 -25 4 1 10 2 14 1
4 0 5 6 1 15 -3 8 -2 14 3 13 5 -1 11 0 14 1 3 1 15 3 28 4 16 2 22 -3 22 -16
0 -11 -7 -18 -18 -18 -13 0 -22 -12 -30 -37 l-11 -38 5 35 c3 29 3 31 -6 13
-5 -13 -14 -23 -20 -23 -5 0 -10 -7 -10 -16 0 -20 -30 -51 -31 -32 0 10 -2 10
-6 1 -2 -7 -12 -13 -20 -13 -11 0 -13 5 -7 18 4 9 7 49 7 87 -1 59 0 64 7 30
l7 -40 3 35z m223 20 c20 -24 23 -37 4 -22 -7 6 -23 9 -35 5 -15 -4 -22 -1
-22 9 0 33 28 37 53 8z m-266 -42 c-3 -7 -5 -2 -5 12 0 14 2 19 5 13 2 -7 2
-19 0 -25z m-137 -45 c0 -50 -6 -54 -14 -10 -5 26 1 57 10 57 2 0 4 -21 4 -47z
m136 -7 c-1 -12 -5 -28 -8 -36 -4 -8 -9 -32 -13 -54 -10 -62 -18 -33 -10 42 5
47 11 69 20 69 8 0 12 -9 11 -21z m36 -388 c-7 -7 -12 -8 -12 -2 0 14 12 26
19 19 2 -3 -1 -11 -7 -17z m446 -71 c2 -15 -1 -27 -7 -27 -6 0 -11 3 -11 8 0
4 -3 18 -7 31 -4 18 -2 23 8 19 8 -2 15 -17 17 -31z m-87 -76 c-16 -34 -32
-58 -35 -52 -4 5 5 26 18 46 14 20 28 46 31 57 4 11 9 18 11 15 3 -2 -9 -32
-25 -66z m119 39 c0 -5 -2 -10 -4 -10 -3 0 -8 5 -11 10 -3 6 -1 10 4 10 6 0
11 -4 11 -10z m-30 -26 c0 -8 -4 -14 -10 -14 -5 0 -10 9 -10 21 0 11 5 17 10
14 6 -3 10 -13 10 -21z m-137 -94 c-3 -12 -8 -19 -11 -16 -5 6 5 36 12 36 2 0
2 -9 -1 -20z m-43 -50 c-8 -5 -19 -10 -25 -10 -5 0 -3 5 5 10 8 5 20 10 25 10
6 0 3 -5 -5 -10z m21 -17 c-12 -20 -14 -14 -5 12 4 9 9 14 11 11 3 -2 0 -13
-6 -23z m119 -1 c0 -13 -30 -52 -40 -52 -18 0 15 59 33 60 4 0 7 -3 7 -8z
m-471 -136 c-9 -8 -10 -7 -5 7 3 10 7 28 7 40 2 16 3 14 6 -7 3 -16 -1 -34 -8
-40z m179 -191 c-6 -14 -13 -23 -15 -21 -5 5 15 46 22 46 3 0 -1 -11 -7 -25z"/>
<path d="M2600 2880 c-8 -5 -12 -12 -9 -15 4 -3 12 1 19 10 14 17 11 19 -10 5z"/>
<path d="M2670 2850 c0 -5 7 -10 15 -10 8 0 15 5 15 10 0 6 -7 10 -15 10 -8 0
-15 -4 -15 -10z"/>
<path d="M2523 2752 c-8 -5 -9 -13 -3 -22 11 -17 23 -8 18 14 -2 9 -8 12 -15
8z"/>
<path d="M2658 3853 c7 -3 16 -2 19 1 4 3 -2 6 -13 5 -11 0 -14 -3 -6 -6z"/>
<path d="M2708 3853 c6 -2 18 -2 25 0 6 3 1 5 -13 5 -14 0 -19 -2 -12 -5z"/>
<path d="M2575 3740 c9 -16 18 -30 21 -30 2 0 -2 14 -11 30 -9 17 -18 30 -21
30 -2 0 2 -13 11 -30z"/>
<path d="M1962 3335 c0 -16 2 -22 5 -12 2 9 2 23 0 30 -3 6 -5 -1 -5 -18z"/>
<path d="M2090 3258 c0 -13 -3 -52 -6 -88 l-6 -65 28 0 c16 0 40 8 54 18 27
19 20 23 -11 7 -13 -7 -19 -7 -19 0 0 5 4 10 9 10 25 0 20 41 -10 89 -18 28
-34 51 -35 51 -2 0 -4 -10 -4 -22z"/>
<path d="M1956 3231 c-7 -10 -1 -67 9 -93 4 -9 13 -19 20 -22 10 -3 9 4 -5 26
-12 21 -17 41 -13 64 5 33 0 44 -11 25z"/>
<path d="M2052 2970 c0 -14 2 -19 5 -12 2 6 2 18 0 25 -3 6 -5 1 -5 -13z"/>
<path d="M2037 2888 c-4 -29 -12 -55 -18 -57 -6 -2 -37 -58 -69 -125 -32 -66
-71 -141 -86 -166 l-27 -45 29 27 c27 25 83 123 100 173 4 12 8 15 11 8 9 -26
-56 -139 -111 -191 l-55 -52 6 35 6 35 -34 -12 c-51 -18 -99 -48 -99 -63 0 -8
8 -21 17 -30 15 -16 18 -15 34 6 l17 22 7 -31 c3 -18 8 -32 11 -32 5 0 43 32
102 85 45 41 84 106 97 162 3 18 11 36 17 40 7 4 9 0 5 -10 -3 -10 -2 -17 3
-17 6 0 10 7 10 15 0 8 7 15 16 15 11 0 14 5 10 16 -3 8 1 22 9 30 17 17 21
49 5 39 -5 -3 -10 -1 -10 4 0 6 7 11 15 11 20 0 20 46 0 53 -11 5 -13 18 -8
57 3 27 4 50 1 50 -3 0 -8 -24 -11 -52z"/>
<path d="M2131 2724 c0 -6 -12 -9 -25 -7 -20 4 -25 0 -31 -27 -4 -19 -3 -36 3
-42 8 -8 9 -5 5 10 -4 17 -1 21 16 19 14 -1 21 -8 22 -22 0 -18 1 -17 10 5 5
13 8 36 6 50 -2 14 -5 20 -6 14z"/>
<path d="M2086 2604 c-23 -22 -20 -24 16 -13 18 5 34 9 36 9 2 0 0 5 -3 10 -9
15 -31 12 -49 -6z"/>
<path d="M2160 2593 c1 -29 23 -50 57 -55 30 -4 32 -3 31 26 -1 17 -3 26 -5
19 -6 -16 -33 -5 -33 13 0 8 -10 14 -25 14 -17 0 -25 -5 -25 -17z"/>
<path d="M2087 2559 c16 -16 85 -20 80 -5 -2 6 -23 12 -48 14 -35 3 -42 1 -32
-9z"/>
<path d="M2270 2271 c0 -5 5 -13 10 -16 6 -3 10 -2 10 4 0 5 -4 13 -10 16 -5
3 -10 2 -10 -4z"/>
<path d="M2617 2261 c-4 -17 -3 -21 5 -13 5 5 8 16 6 23 -3 8 -7 3 -11 -10z"/>
<path d="M2266 2224 c-9 -23 -7 -46 3 -40 11 7 21 56 11 56 -4 0 -11 -7 -14
-16z"/>
<path d="M2430 2099 c0 -2 -4 -19 -9 -37 -5 -17 -6 -32 -1 -32 10 0 24 59 16
67 -3 4 -6 4 -6 2z"/>
<path d="M2389 1939 c-11 -21 -47 -142 -55 -188 -3 -14 -7 -28 -10 -33 -3 -4
-1 -8 5 -8 6 0 8 -7 5 -15 -4 -10 0 -15 15 -15 14 0 21 -6 21 -20 0 -11 3 -20
8 -21 4 0 20 -2 36 -4 22 -3 37 5 68 33 77 71 71 96 -25 108 -66 9 -70 27 -17
73 l43 37 -27 28 c-14 16 -26 33 -26 37 0 18 -30 8 -41 -12z"/>
<path d="M1800 1935 c0 -26 148 -85 212 -85 20 0 26 4 22 15 -4 10 -14 13 -29
9 -15 -4 -50 8 -103 35 -90 45 -102 48 -102 26z"/>
<path d="M2648 1850 c-25 -16 -49 -34 -53 -40 -10 -16 2 -25 17 -12 7 5 27 12
43 14 19 2 29 8 27 17 -1 7 3 19 9 27 21 26 4 23 -43 -6z m19 -26 c-3 -3 -12
-4 -19 -1 -8 3 -5 6 6 6 11 1 17 -2 13 -5z"/>
<path d="M2731 1839 c-14 -40 -14 -39 4 -39 8 0 15 -5 15 -11 0 -5 5 -7 11 -4
11 7 3 63 -11 78 -4 5 -13 -6 -19 -24z"/>
<path d="M2313 1785 c0 -22 2 -30 4 -17 2 12 2 30 0 40 -3 9 -5 -1 -4 -23z"/>
<path d="M2797 1793 c-12 -11 -8 -31 8 -37 11 -4 15 1 15 19 0 24 -10 32 -23
18z"/>
<path d="M2166 1765 c-20 -21 -20 -29 0 -46 14 -11 19 -10 35 10 11 13 18 29
16 35 -6 18 -33 18 -51 1z"/>
<path d="M2580 1735 c-28 -11 -31 -14 -12 -14 12 -1 33 -8 46 -16 26 -17 56
-11 56 11 0 11 -43 38 -53 33 -1 0 -18 -7 -37 -14z"/>
<path d="M2696 1443 c-1 -1 15 -37 35 -80 34 -72 36 -80 23 -105 -8 -15 -14
-29 -14 -31 0 -2 19 -3 43 -3 39 1 78 -16 149 -66 32 -23 32 2 0 65 -17 34
-36 81 -42 104 -12 48 -45 78 -101 93 -22 6 -39 15 -39 19 0 8 -47 11 -54 4z"/>
<path d="M2539 1188 c-6 -13 -21 -33 -32 -45 -21 -24 -11 -33 12 -10 10 10 11
9 6 -5 -4 -11 -2 -18 4 -18 6 0 11 4 11 9 0 4 10 8 23 7 12 -1 46 4 76 10 42
8 60 17 78 40 l23 31 -60 -13 c-59 -12 -94 -10 -117 8 -8 6 -15 2 -24 -14z"/>
<path d="M2327 1140 c-18 -17 -34 -110 -19 -110 7 0 46 120 40 125 -2 1 -11
-5 -21 -15z"/>
<path d="M2266 1035 c4 -8 8 -15 10 -15 2 0 4 7 4 15 0 8 -4 15 -10 15 -5 0
-7 -7 -4 -15z"/>
<path d="M2291 1010 c0 -8 4 -22 9 -30 12 -18 12 -2 0 25 -6 13 -9 15 -9 5z"/>
<path d="M2270 855 c0 -8 4 -15 10 -15 5 0 7 7 4 15 -4 8 -8 15 -10 15 -2 0
-4 -7 -4 -15z"/>
</g>
</svg>
