<?xml version="1.0" standalone="no"?>
<!DOCTYPE svg PUBLIC "-//W3C//DTD SVG 20010904//EN"
 "http://www.w3.org/TR/2001/REC-SVG-20010904/DTD/svg10.dtd">
<svg version="1.0" xmlns="http://www.w3.org/2000/svg"
 width="493.000000pt" height="501.000000pt" viewBox="0 0 493.000000 501.000000"
 preserveAspectRatio="xMidYMid meet">
<metadata>
Created by potrace 1.16, written by Peter Selinger 2001-2019
</metadata>
<g transform="translate(0.000000,501.000000) scale(0.100000,-0.100000)"
fill="#fff" stroke="none">
<path d="M2211 4849 c-170 -20 -229 -31 -366 -68 -126 -34 -366 -124 -415
-156 -8 -5 -36 -19 -61 -31 -65 -31 -227 -135 -339 -218 -193 -143 -440 -417
-584 -647 -120 -191 -232 -466 -282 -694 -41 -185 -43 -198 -55 -357 -18 -240
1 -486 54 -718 24 -105 83 -296 97 -315 4 -5 13 -28 20 -50 16 -53 140 -290
197 -380 154 -238 353 -450 588 -625 150 -111 275 -182 485 -277 80 -36 227
-85 340 -113 47 -12 101 -25 120 -30 20 -5 102 -16 183 -25 419 -44 828 12
1192 163 146 60 421 219 522 301 18 14 49 40 70 56 39 31 283 272 318 315 274
332 463 757 522 1171 24 172 24 528 -1 694 -34 233 -105 462 -210 677 -92 187
-120 234 -238 394 -92 125 -268 311 -388 409 -25 20 -52 42 -61 50 -77 62
-247 168 -369 231 -414 211 -891 297 -1339 243z m337 -151 l3 -48 -38 -1 -38
-2 35 -6 c31 -5 35 -10 38 -38 3 -28 0 -33 -25 -39 -48 -10 -49 -12 -10 -13
l37 -1 0 -46 0 -46 -66 4 c-94 6 -106 23 -102 144 4 123 22 144 123 140 l40
-1 3 -47z m374 -16 c33 -31 41 -45 42 -77 l1 -40 -40 4 c-30 2 -46 10 -63 32
-37 46 -72 36 -87 -23 -5 -19 -1 -32 14 -47 27 -27 37 -26 65 4 25 27 63 32
97 14 19 -10 19 -11 -3 -50 -32 -57 -77 -83 -137 -77 -56 6 -92 29 -120 79
-26 46 -26 81 0 135 27 58 70 84 137 84 47 0 57 -4 94 -38z m-952 -20 c40 -21
80 -89 80 -136 0 -112 -120 -181 -219 -125 -88 49 -102 166 -29 236 18 17 40
33 48 36 32 11 87 6 120 -11z m1238 -43 c12 -5 22 -10 22 -11 0 -2 -14 -39
-30 -82 -17 -44 -29 -87 -27 -95 4 -18 2 -23 45 89 13 36 28 69 32 74 13 13
80 -13 80 -32 0 -9 -16 -58 -36 -109 -30 -76 -42 -96 -70 -114 -41 -25 -80
-19 -124 18 -22 18 -30 34 -30 57 0 34 27 124 41 141 5 5 9 15 9 21 0 7 5 25
10 39 10 27 14 28 78 4z m-1617 -89 c27 -15 52 -68 46 -99 -4 -21 3 -33 41
-67 l47 -41 -44 -22 -43 -23 -42 34 c-36 29 -39 30 -25 8 30 -48 30 -59 -1
-75 -16 -8 -36 -15 -44 -15 -15 0 -126 214 -126 242 0 19 98 66 138 67 18 1
42 -4 53 -9z m1984 -77 c30 -15 55 -30 55 -33 0 -3 -9 -20 -21 -39 -20 -33
-24 -34 -74 -16 -12 4 -9 0 8 -11 31 -21 33 -31 11 -62 -14 -21 -17 -21 -50
-7 -18 7 -34 10 -34 6 0 -5 14 -14 30 -21 35 -15 37 -24 10 -68 -19 -31 -21
-32 -48 -18 -62 34 -86 62 -85 99 1 20 11 50 22 66 12 17 26 44 32 60 9 26 60
70 81 71 4 0 32 -12 63 -27z m-2287 -86 l23 -32 -24 -20 -23 -20 55 -79 54
-80 -24 -18 c-13 -10 -29 -22 -36 -28 -13 -10 -47 28 -97 108 -23 36 -29 41
-46 32 -32 -17 -49 -11 -66 21 -13 26 -14 34 -2 45 22 22 142 103 153 103 6 0
20 -14 33 -32z m1515 -41 c82 -14 152 -28 158 -31 5 -4 41 -15 79 -26 170 -47
399 -163 567 -287 132 -98 344 -313 408 -413 6 -8 34 -51 63 -94 134 -199 241
-485 277 -738 28 -197 14 -586 -26 -717 -5 -19 -19 -67 -30 -107 -32 -121
-116 -313 -184 -423 -19 -30 -41 -68 -50 -83 -9 -15 -33 -49 -53 -76 -20 -26
-50 -65 -67 -87 -41 -54 -209 -221 -270 -269 -27 -22 -52 -43 -55 -46 -19 -22
-216 -140 -315 -189 -145 -70 -288 -119 -461 -157 -121 -26 -143 -28 -369 -28
-226 0 -248 2 -375 29 -134 28 -282 74 -372 115 -26 11 -50 21 -53 21 -12 0
-209 112 -270 153 -139 93 -309 250 -420 387 -165 205 -309 495 -360 725 -9
39 -23 99 -33 135 -14 53 -17 113 -17 325 0 273 -2 251 55 490 51 215 199 516
336 685 236 290 437 440 819 610 22 10 60 23 85 30 25 6 70 19 100 30 46 15
224 47 360 64 85 10 331 -4 473 -28z m1042 -42 c14 -9 25 -23 25 -31 0 -24
-40 -67 -62 -68 -16 0 -24 -11 -35 -47 -18 -62 -47 -82 -109 -75 -42 4 -73 26
-73 52 0 6 10 23 24 39 20 25 26 28 40 16 19 -15 18 -16 33 37 23 78 99 115
157 77z m-2848 -134 c17 -6 62 -46 101 -89 l71 -78 -28 -27 c-15 -14 -32 -26
-38 -26 -6 0 -39 29 -74 65 -81 84 -89 70 -9 -16 33 -35 60 -69 60 -76 0 -6
-14 -22 -31 -34 l-32 -22 -78 80 c-72 73 -79 84 -79 120 0 44 28 89 64 103 29
12 38 12 73 0z m3061 -61 c40 -39 72 -74 72 -78 0 -4 -13 -20 -30 -36 l-30
-29 -23 22 -23 22 -64 -65 c-36 -36 -69 -65 -75 -65 -6 0 -23 13 -38 28 l-27
28 70 69 69 70 -21 23 -22 22 29 30 c16 17 32 30 35 30 3 0 39 -32 78 -71z
m-3281 -206 c2 -6 -3 -24 -13 -40 l-18 -28 27 24 27 24 25 -23 c23 -22 24 -24
8 -54 l-16 -31 25 23 c30 28 36 27 72 -1 l29 -24 -43 -46 c-65 -72 -108 -63
-222 45 -48 45 -48 72 -2 132 l35 46 31 -17 c17 -10 32 -23 35 -30z m3490 -26
c45 -61 56 -90 49 -131 -8 -41 -50 -76 -91 -76 -19 0 -31 -8 -43 -31 -9 -17
-24 -41 -33 -52 -16 -21 -17 -20 -44 21 l-27 41 23 38 23 38 -33 -25 -34 -24
-23 30 c-13 16 -24 34 -24 41 0 11 207 173 220 173 3 0 19 -20 37 -43z m-3637
-244 c0 -3 -8 -24 -17 -44 -13 -28 -24 -39 -40 -39 -28 0 -56 -40 -46 -66 9
-25 23 -34 54 -34 45 0 63 38 37 80 -10 15 -9 26 5 54 20 42 35 45 66 12 74
-79 31 -222 -74 -242 -102 -19 -185 47 -185 146 0 49 20 90 56 119 20 16 41
21 85 21 33 0 59 -3 59 -7z m3851 -91 c9 -17 22 -38 28 -46 10 -12 5 -19 -26
-41 l-38 -26 -24 28 c-22 27 -23 22 -5 -23 5 -10 -36 -34 -57 -34 -5 0 -15 11
-21 25 -6 14 -15 25 -20 25 -5 0 -2 -13 7 -30 8 -16 15 -33 15 -38 0 -14 -57
-35 -75 -28 -24 9 -57 90 -49 120 6 27 68 72 144 104 56 24 97 12 121 -36z
m-3750 -2055 c37 -28 52 -98 27 -129 -15 -17 -82 -63 -145 -98 l-42 -23 -20
24 c-26 31 -26 44 1 63 26 19 18 32 -10 17 -30 -16 -35 -14 -55 21 -22 38 -21
38 77 97 73 43 134 53 167 28z m3636 -17 c42 -25 63 -68 63 -126 0 -41 -5 -51
-39 -85 -34 -34 -44 -39 -85 -39 -26 0 -60 7 -76 15 -89 46 -104 166 -29 230
39 32 118 35 166 5z m-3443 -246 c39 -40 37 -103 -5 -138 -43 -36 -79 -38
-115 -5 -26 25 -33 24 -65 -7 l-27 -26 -26 29 c-34 37 -33 47 10 80 20 15 54
43 76 61 53 42 112 45 152 6z m3139 -42 c27 -29 27 -29 7 -47 -11 -10 -20 -26
-20 -36 0 -24 27 -49 52 -49 21 0 21 0 -2 25 l-24 25 21 28 c27 37 52 38 91 5
48 -41 54 -90 15 -133 -53 -59 -144 -56 -205 7 -30 31 -33 40 -33 94 0 54 3
63 28 85 35 30 37 30 70 -4z m-2943 -164 c8 1 28 4 43 8 32 7 77 -12 77 -33 0
-8 -13 -13 -36 -13 -31 0 -35 -3 -28 -17 5 -10 9 -44 9 -75 0 -53 -3 -61 -37
-94 -31 -32 -45 -38 -91 -42 -49 -4 -59 -1 -91 24 -58 46 -70 129 -28 193 24
35 89 63 132 55 19 -3 42 -6 50 -6z m2739 -38 c21 -11 151 -157 151 -170 0 -5
-14 -18 -31 -30 l-30 -22 -24 22 c-14 13 -25 17 -29 11 -4 -5 3 -15 14 -21 27
-15 24 -31 -12 -59 l-30 -24 -31 35 c-100 111 -107 123 -107 171 0 27 8 42 35
66 37 32 63 38 94 21z m-217 -212 c18 -28 45 -69 60 -92 52 -78 51 -73 19 -95
-16 -12 -33 -21 -39 -21 -11 0 -142 198 -142 216 0 14 38 44 56 44 7 0 27 -23
46 -52z m-2230 25 c10 -9 18 -21 18 -27 -1 -20 -38 -61 -56 -61 -12 0 -20 -11
-25 -33 -10 -51 -55 -92 -99 -92 -38 0 -80 23 -80 44 0 24 40 66 62 63 16 -2
23 7 34 43 7 24 23 52 36 62 29 22 86 23 110 1z m188 -113 c77 -40 79 -42 69
-68 -17 -43 -28 -53 -50 -41 -11 5 -23 8 -27 5 -4 -2 -23 -36 -42 -75 -18 -39
-40 -71 -46 -71 -23 0 -64 23 -64 35 0 7 16 44 35 81 19 38 35 72 35 76 0 4
-9 10 -20 13 -11 3 -20 14 -20 23 0 21 27 62 41 62 5 0 45 -18 89 -40z m1870
4 c7 -19 10 -37 8 -38 -1 -2 -11 -7 -20 -12 -16 -9 -14 -16 21 -86 21 -41 36
-80 32 -86 -8 -13 -60 -34 -70 -28 -4 3 -22 36 -41 75 -34 68 -36 70 -65 65
-27 -5 -32 -2 -48 30 -19 40 -27 32 83 88 73 37 86 36 100 -8z m-282 -121 c32
-34 91 -198 76 -213 -5 -5 -23 -12 -40 -16 -31 -6 -31 -6 -59 73 -27 74 -45
110 -45 87 0 -6 11 -44 25 -84 31 -91 31 -96 1 -104 -13 -3 -31 -8 -39 -11
-10 -5 -22 17 -46 84 -17 49 -31 103 -31 118 0 81 102 123 158 66z m-1257 -19
c81 -78 47 -213 -64 -246 -33 -10 -44 -9 -82 10 -52 25 -75 56 -82 110 -7 51
17 102 65 136 50 37 119 32 163 -10z m958 -51 c22 -23 30 -46 45 -131 10 -57
16 -105 14 -107 -1 -2 -21 -5 -43 -7 -33 -2 -40 0 -43 17 -2 11 -8 25 -14 30
-7 7 -8 0 -3 -22 7 -35 4 -39 -45 -48 l-35 -6 -13 53 c-7 29 -15 82 -19 118
-5 62 -4 66 23 92 49 45 95 48 133 11z m-705 -3 c6 -6 4 -38 -7 -87 -15 -69
-16 -79 -2 -89 26 -19 12 -94 -17 -94 -27 0 -78 46 -84 75 -4 25 16 158 32
204 5 15 60 9 78 -9z m436 -55 c0 -33 -4 -45 -15 -45 -18 0 -18 -8 0 -40 38
-66 -6 -150 -78 -150 -38 0 -47 12 -47 61 0 22 5 29 20 29 23 0 25 15 5 50
-22 38 -18 75 11 109 21 25 33 31 65 31 l39 0 0 -45z"/>
<path d="M2325 4309 c-66 -5 -154 -15 -195 -22 -87 -17 -270 -66 -285 -77 -5
-4 -28 -13 -50 -20 -73 -23 -239 -108 -334 -172 -147 -98 -151 -101 -241 -184
-158 -146 -291 -315 -392 -498 -195 -354 -269 -810 -194 -1206 24 -129 81
-332 106 -378 5 -9 32 -64 59 -122 64 -131 104 -196 201 -325 175 -233 464
-455 743 -571 577 -241 1228 -183 1747 154 47 31 91 62 99 70 8 7 25 21 40 30
55 37 201 178 269 262 21 25 39 47 42 50 10 10 86 116 113 158 46 71 135 248
163 325 37 101 84 277 100 372 30 188 26 501 -7 640 -6 22 -19 76 -29 120 -49
203 -163 446 -292 625 -74 102 -186 224 -282 309 -389 340 -857 496 -1381 460z
m512 -343 c198 -34 416 -129 593 -260 69 -50 216 -199 255 -257 16 -24 39 -56
51 -71 39 -48 131 -250 163 -356 43 -147 58 -319 43 -500 -7 -75 -18 -159 -26
-187 -8 -27 -22 -76 -31 -108 -19 -70 -80 -223 -101 -255 -8 -12 -13 -26 -10
-31 3 -4 52 -11 108 -15 106 -7 142 -19 91 -30 -241 -52 -845 -72 -1093 -36
-277 40 -503 122 -706 256 -28 19 -55 34 -60 34 -11 -1 -89 -69 -83 -73 2 -1
29 -21 59 -43 90 -65 112 -79 175 -112 204 -106 480 -190 762 -232 76 -11 147
-23 158 -26 11 -2 98 -13 194 -22 96 -10 176 -22 178 -28 4 -12 -230 -34 -351
-34 -94 0 -576 34 -796 56 -142 14 -352 32 -391 33 -10 1 -20 16 -26 44 -6 23
-29 85 -52 137 -22 52 -41 109 -41 126 0 42 52 118 98 141 78 39 129 73 148
100 26 36 44 87 44 128 0 17 7 40 16 51 14 18 15 14 11 -44 -3 -59 -2 -64 24
-82 64 -47 267 -67 409 -41 38 7 114 35 183 68 114 54 123 56 218 61 131 6
176 -7 232 -67 50 -53 88 -153 107 -281 6 -41 12 -75 13 -76 1 -1 23 -4 49 -8
l46 -7 -13 53 c-77 307 -107 393 -152 433 -15 14 -54 33 -85 42 -32 9 -58 20
-58 24 0 16 88 59 132 65 25 4 61 1 80 -5 45 -15 103 -76 118 -126 17 -54 58
-135 80 -160 28 -30 72 -123 68 -143 -2 -12 -13 -17 -38 -17 -34 0 -35 -2 -44
-48 -7 -33 -6 -54 1 -65 12 -20 82 -37 116 -28 31 7 67 80 67 136 0 51 -39
130 -94 191 -34 37 -49 70 -86 179 -61 182 -90 214 -215 240 -110 23 -119 32
-128 133 -4 38 -17 66 -66 138 -62 93 -69 114 -50 152 16 31 71 87 85 87 6 0
14 -18 17 -39 7 -57 52 -118 132 -179 47 -36 87 -78 121 -129 73 -107 122
-128 183 -78 64 55 60 131 -18 305 -21 47 -48 121 -60 165 -12 44 -29 103 -37
131 -14 51 -52 94 -243 279 l-42 40 7 -55 c5 -50 4 -57 -18 -78 -16 -14 -51
-28 -97 -37 -136 -29 -231 -97 -481 -347 -139 -140 -176 -171 -237 -202 -81
-40 -174 -66 -244 -66 -102 0 -232 -30 -319 -74 -94 -48 -109 -52 -195 -61
-33 -3 -82 -11 -110 -17 -60 -12 -203 -79 -264 -122 -129 -92 -221 -236 -221
-346 0 -42 31 -130 46 -130 3 0 4 6 1 14 -8 19 3 28 19 15 9 -8 14 7 19 68 11
114 45 191 117 263 78 78 104 81 54 7 -45 -66 -86 -241 -85 -362 2 -112 -52
-212 -166 -309 -52 -45 -64 -50 -115 -54 -72 -5 -118 9 -156 49 -25 26 -29 38
-29 83 0 29 6 65 14 79 14 25 77 64 88 53 3 -3 -9 -22 -26 -43 -40 -49 -40
-83 0 -117 57 -48 140 -25 193 53 24 36 28 53 28 104 0 36 -7 79 -17 102 -22
53 -30 177 -16 244 17 79 63 169 115 224 45 47 53 68 48 132 -5 80 52 336 94
415 7 14 29 59 49 101 39 80 151 237 214 298 227 223 492 357 781 395 128 17
349 13 477 -8z m-1150 -1280 c-38 -98 -32 -194 19 -310 20 -45 42 -88 50 -97
26 -29 16 -49 -33 -71 -101 -44 -128 -77 -188 -224 -34 -84 -35 -91 -24 -147
16 -93 6 -89 -79 26 -50 68 -54 94 -31 189 11 46 27 146 35 223 8 77 21 164
30 194 18 62 65 136 111 175 58 48 122 73 110 42z m180 -919 c18 -42 31 -82
28 -87 -10 -16 -210 -13 -224 4 -21 25 -41 111 -41 176 0 71 12 98 65 143 l30
25 53 -92 c30 -50 70 -126 89 -169z m483 -202 c157 -16 630 -71 775 -89 85
-11 96 -14 75 -23 -41 -17 -204 -23 -585 -24 -198 -1 -355 -3 -350 -5 11 -4
272 -47 420 -70 50 -7 167 -18 260 -25 94 -6 177 -13 185 -16 28 -9 -53 -30
-161 -42 -295 -30 -517 -21 -728 30 -132 32 -144 36 -281 101 -121 58 -250
151 -250 180 0 15 450 3 640 -17z"/>
<path d="M2640 3709 c-35 -5 -66 -12 -69 -15 -3 -2 4 -14 16 -25 19 -20 24
-20 59 -8 50 18 219 15 333 -4 83 -14 84 -14 62 4 -57 46 -257 70 -401 48z"/>
<path d="M2756 3583 c-10 -3 -53 -23 -95 -45 -67 -35 -82 -40 -123 -35 -27 4
-69 15 -95 26 l-48 21 32 -26 c17 -14 51 -35 75 -47 23 -12 43 -26 42 -32 -1
-18 -63 -53 -106 -59 -56 -8 -126 13 -177 53 -45 36 -47 36 -55 15 -8 -20 13
-59 56 -105 38 -41 128 -79 188 -79 82 0 134 30 300 170 36 30 86 66 113 80
26 14 47 29 47 33 0 24 -100 44 -154 30z"/>
</g>
</svg>
